<?xml version="1.0" encoding="UTF-8"?>
<!DOCTYPE svg PUBLIC "-//W3C//DTD SVG 1.1//EN" "http://www.w3.org/Graphics/SVG/1.1/DTD/svg11.dtd">
<svg xmlns="http://www.w3.org/2000/svg" version="1.1" width="512px" height="512px" style="shape-rendering:geometricPrecision; text-rendering:geometricPrecision; image-rendering:optimizeQuality; fill-rule:evenodd; clip-rule:evenodd" xmlns:xlink="http://www.w3.org/1999/xlink">
<g><path style="opacity:0.985" fill="#b000e4" d="M 283.5,-0.5 C 298.5,-0.5 313.5,-0.5 328.5,-0.5C 372.786,3.76259 413.453,18.2626 450.5,43C 459.466,50.8981 462.632,60.7315 460,72.5C 456.624,83.2108 449.457,89.7108 438.5,92C 369.539,95.3662 320.039,127.866 290,189.5C 264.434,256.111 275.1,316.111 322,369.5C 343.048,390.281 367.881,404.781 396.5,413C 412.744,416.404 429.077,419.071 445.5,421C 458.051,428.277 462.884,439.11 460,453.5C 458.462,459.412 455.295,464.245 450.5,468C 413.454,492.737 372.787,507.237 328.5,511.5C 313.5,511.5 298.5,511.5 283.5,511.5C 193.111,500.242 125.278,455.242 80,376.5C 45.6174,308.128 40.9507,237.794 66,165.5C 97.2779,88.2216 152.445,36.3883 231.5,10C 248.69,5.0842 266.024,1.5842 283.5,-0.5 Z M 302.5,53.5 C 317.294,53.7721 331.961,55.2721 346.5,58C 275.9,93.3148 234.733,150.148 223,228.5C 215.442,318.535 248.608,389.035 322.5,440C 330.181,444.842 338.181,449.175 346.5,453C 256.623,466.631 186.123,436.131 135,361.5C 95.82,293.057 94.82,224.057 132,154.5C 171.42,91.6975 228.253,58.0308 302.5,53.5 Z"/></g>
</svg>
